<?xml version="1.0" encoding="utf-8"?>
<!-- Generator: Adobe Illustrator 22.0.1, SVG Export Plug-In . SVG Version: 6.00 Build 0)  -->
<svg version="1.1" id="Layer_1" xmlns="http://www.w3.org/2000/svg" xmlns:xlink="http://www.w3.org/1999/xlink" x="0px" y="0px"
	 viewBox="0 0 640 640" style="enable-background:new 0 0 640 640;" xml:space="preserve">
<style type="text/css">
	.st0{fill:#373737;}
	.st1{fill-opacity:0;stroke:#000000;stroke-opacity:0;}
	.st2{fill:#FF3B3F;}
	.st3{fill:#9099A2;}
</style>
<g>
	<g>
		<path id="d6HSXmKjR" class="st0" d="M457.2,205.9C457.2,211.2,457.2,200.7,457.2,205.9c0,14.5-11.8,26.3-26.3,26.3
			c-42.2,0-142.6,0-184.8,0c-14.5,0-26.3-11.8-26.3-26.3c0-5.3,0,5.3,0,0c0-14.5,11.8-26.3,26.3-26.3c42.2,0,142.6,0,184.8,0
			C445.4,179.6,457.2,191.4,457.2,205.9z"/>
	</g>
	<g>
		<g>
			<path id="d6HSXmKjR_1_" class="st1" d="M457.2,205.9C457.2,211.2,457.2,200.7,457.2,205.9c0,14.5-11.8,26.3-26.3,26.3
				c-42.2,0-142.6,0-184.8,0c-14.5,0-26.3-11.8-26.3-26.3c0-5.3,0,5.3,0,0c0-14.5,11.8-26.3,26.3-26.3c42.2,0,142.6,0,184.8,0
				C445.4,179.6,457.2,191.4,457.2,205.9z"/>
		</g>
	</g>
</g>
<g>
	<g>
		<path id="af5CfGalX" class="st2" d="M596.1,414.6C596.1,419.8,596.1,409.3,596.1,414.6c0,14.5-11.7,26.3-26.1,26.3
			c-41.9,0-141.6,0-183.6,0c-14.4,0-26.1-11.8-26.1-26.3c0-5.2,0,5.3,0,0c0-14.5,11.7-26.2,26.1-26.2c42,0,141.7,0,183.6,0
			C584.4,388.3,596.1,400.1,596.1,414.6z"/>
	</g>
	<g>
		<g>
			<path id="af5CfGalX_1_" class="st1" d="M596.1,414.6C596.1,419.8,596.1,409.3,596.1,414.6c0,14.5-11.7,26.3-26.1,26.3
				c-41.9,0-141.6,0-183.6,0c-14.4,0-26.1-11.8-26.1-26.3c0-5.2,0,5.3,0,0c0-14.5,11.7-26.2,26.1-26.2c42,0,141.7,0,183.6,0
				C584.4,388.3,596.1,400.1,596.1,414.6z"/>
		</g>
	</g>
</g>
<g>
	<g>
		<path id="g4VlVlvk2V" class="st3" d="M335,329.5c-18.6,24.4-58.6,76.7-77.3,101.1c-8.8,11.5-25.2,13.7-36.7,4.9
			c-4.1-3.2,4.2,3.2,0,0c-11.5-8.8-13.7-25.2-4.9-36.7c18.6-24.4,58.6-76.7,77.3-101.1c8.8-11.5,25.2-13.7,36.7-4.9
			c4.2,3.2-4.1-3.2,0,0C341.6,301.5,343.8,318,335,329.5z"/>
	</g>
	<g>
		<g>
			<path id="g4VlVlvk2V_1_" class="st1" d="M335,329.5c-18.6,24.4-58.6,76.7-77.3,101.1c-8.8,11.5-25.2,13.7-36.7,4.9
				c-4.1-3.2,4.2,3.2,0,0c-11.5-8.8-13.7-25.2-4.9-36.7c18.6-24.4,58.6-76.7,77.3-101.1c8.8-11.5,25.2-13.7,36.7-4.9
				c4.2,3.2-4.1-3.2,0,0C341.6,301.5,343.8,318,335,329.5z"/>
		</g>
	</g>
</g>
<g>
	<g>
		<path id="gS44regq0" class="st3" d="M526,313.7C526,318.9,526,308.4,526,313.7c0,14.5-11.8,26.3-26.3,26.3
			c-42.2,0-142.6,0-184.8,0c-14.5,0-26.3-11.8-26.3-26.3c0-5.3,0,5.3,0,0c0-14.5,11.8-26.3,26.3-26.3c42.2,0,142.6,0,184.8,0
			C514.2,287.4,526,299.1,526,313.7z"/>
	</g>
	<g>
		<g>
			<path id="gS44regq0_1_" class="st1" d="M526,313.7C526,318.9,526,308.4,526,313.7c0,14.5-11.8,26.3-26.3,26.3
				c-42.2,0-142.6,0-184.8,0c-14.5,0-26.3-11.8-26.3-26.3c0-5.3,0,5.3,0,0c0-14.5,11.8-26.3,26.3-26.3c42.2,0,142.6,0,184.8,0
				C514.2,287.4,526,299.1,526,313.7z"/>
		</g>
	</g>
</g>
<path class="st0" d="M69.9,435.5L69.9,435.5c-11.5-8.8-13.7-25.3-4.9-36.8l160.1-208.8c8.8-11.5,25.3-13.7,36.8-4.9l0,0
	c11.5,8.8,13.7,25.3,4.9,36.8L106.7,430.6C97.9,442.2,81.4,444.3,69.9,435.5z"/>
</svg>
